<mxfile host="app.diagrams.net" modified="2024-06-17T12:04:00.731Z" agent="Mozilla/5.0 (Windows NT 10.0; Win64; x64) AppleWebKit/537.36 (KHTML, like Gecko) Chrome/121.0.0.0 Safari/537.36" etag="Rod2vP9yygBBgbfHVMb9" version="24.5.4" type="device">
  <diagram name="Página-1" id="MZOrhbTqoAxMYfqySvp9">
    <mxGraphModel dx="12340" dy="8620" grid="1" gridSize="10" guides="1" tooltips="1" connect="1" arrows="1" fold="1" page="0" pageScale="1" pageWidth="827" pageHeight="1169" math="0" shadow="0">
      <root>
        <mxCell id="0" />
        <mxCell id="1" parent="0" />
        <mxCell id="YWciEob6G5SSci7iSp5B-1" value="" style="rounded=0;whiteSpace=wrap;html=1;fillColor=#ffe6cc;strokeColor=#d79b00;" vertex="1" parent="1">
          <mxGeometry x="2340" y="-460" width="5080" height="6920" as="geometry" />
        </mxCell>
        <mxCell id="YWciEob6G5SSci7iSp5B-2" style="edgeStyle=orthogonalEdgeStyle;rounded=0;orthogonalLoop=1;jettySize=auto;html=1;exitX=0.5;exitY=0.5;exitDx=0;exitDy=0;exitPerimeter=0;entryX=0;entryY=0.5;entryDx=0;entryDy=0;" edge="1" parent="1" source="YWciEob6G5SSci7iSp5B-3" target="YWciEob6G5SSci7iSp5B-5">
          <mxGeometry relative="1" as="geometry" />
        </mxCell>
        <mxCell id="YWciEob6G5SSci7iSp5B-3" value="" style="shape=umlActor;verticalLabelPosition=bottom;verticalAlign=top;html=1;outlineConnect=0;" vertex="1" parent="1">
          <mxGeometry x="2431.33" y="3898.74" width="280" height="550" as="geometry" />
        </mxCell>
        <mxCell id="YWciEob6G5SSci7iSp5B-4" value="&lt;font style=&quot;font-size: 100px;&quot;&gt;COMPRA&lt;/font&gt;" style="text;html=1;align=center;verticalAlign=middle;whiteSpace=wrap;rounded=0;" vertex="1" parent="1">
          <mxGeometry x="2427.88" y="3729.99" width="421.09" height="85" as="geometry" />
        </mxCell>
        <mxCell id="YWciEob6G5SSci7iSp5B-5" value="&lt;font style=&quot;font-size: 40px;&quot;&gt;PEDIDO/COMPRA&lt;/font&gt;" style="ellipse;whiteSpace=wrap;html=1;" vertex="1" parent="1">
          <mxGeometry x="3061.33" y="4063.74" width="370" height="220" as="geometry" />
        </mxCell>
        <mxCell id="YWciEob6G5SSci7iSp5B-6" style="edgeStyle=orthogonalEdgeStyle;rounded=0;orthogonalLoop=1;jettySize=auto;html=1;exitX=0.5;exitY=0.5;exitDx=0;exitDy=0;exitPerimeter=0;entryX=0;entryY=0.5;entryDx=0;entryDy=0;" edge="1" parent="1" source="YWciEob6G5SSci7iSp5B-7" target="YWciEob6G5SSci7iSp5B-8">
          <mxGeometry relative="1" as="geometry" />
        </mxCell>
        <mxCell id="YWciEob6G5SSci7iSp5B-7" value="" style="shape=umlActor;verticalLabelPosition=bottom;verticalAlign=top;html=1;outlineConnect=0;" vertex="1" parent="1">
          <mxGeometry x="3541.33" y="3898.74" width="280" height="550" as="geometry" />
        </mxCell>
        <mxCell id="YWciEob6G5SSci7iSp5B-8" value="&lt;font style=&quot;font-size: 40px;&quot;&gt;ESTOQUE&lt;/font&gt;" style="ellipse;whiteSpace=wrap;html=1;" vertex="1" parent="1">
          <mxGeometry x="4019.59" y="4063.74" width="370" height="220" as="geometry" />
        </mxCell>
        <mxCell id="YWciEob6G5SSci7iSp5B-9" style="edgeStyle=orthogonalEdgeStyle;rounded=0;orthogonalLoop=1;jettySize=auto;html=1;exitX=0.5;exitY=0.5;exitDx=0;exitDy=0;exitPerimeter=0;" edge="1" parent="1" source="YWciEob6G5SSci7iSp5B-10" target="YWciEob6G5SSci7iSp5B-12">
          <mxGeometry relative="1" as="geometry" />
        </mxCell>
        <mxCell id="YWciEob6G5SSci7iSp5B-10" value="" style="shape=umlActor;verticalLabelPosition=bottom;verticalAlign=top;html=1;outlineConnect=0;" vertex="1" parent="1">
          <mxGeometry x="2459.2799999999997" y="397.5" width="280" height="550" as="geometry" />
        </mxCell>
        <mxCell id="YWciEob6G5SSci7iSp5B-11" value="&lt;font style=&quot;font-size: 100px;&quot;&gt;LOGIN&lt;/font&gt;" style="text;html=1;align=left;verticalAlign=middle;whiteSpace=wrap;rounded=0;" vertex="1" parent="1">
          <mxGeometry x="2427.88" y="209.85" width="406.42" height="85.3" as="geometry" />
        </mxCell>
        <mxCell id="YWciEob6G5SSci7iSp5B-12" value="&lt;font style=&quot;font-size: 40px;&quot;&gt;LOGIN/ENTRAR&lt;/font&gt;" style="ellipse;whiteSpace=wrap;html=1;" vertex="1" parent="1">
          <mxGeometry x="2952.55" y="562.35" width="370" height="220" as="geometry" />
        </mxCell>
        <mxCell id="YWciEob6G5SSci7iSp5B-13" style="edgeStyle=orthogonalEdgeStyle;rounded=0;orthogonalLoop=1;jettySize=auto;html=1;exitX=0.5;exitY=0.5;exitDx=0;exitDy=0;exitPerimeter=0;entryX=0;entryY=0.5;entryDx=0;entryDy=0;" edge="1" parent="1" source="YWciEob6G5SSci7iSp5B-14" target="YWciEob6G5SSci7iSp5B-15">
          <mxGeometry relative="1" as="geometry" />
        </mxCell>
        <mxCell id="YWciEob6G5SSci7iSp5B-14" value="" style="shape=umlActor;verticalLabelPosition=bottom;verticalAlign=top;html=1;outlineConnect=0;" vertex="1" parent="1">
          <mxGeometry x="3549.2799999999997" y="397.5" width="280" height="550" as="geometry" />
        </mxCell>
        <mxCell id="YWciEob6G5SSci7iSp5B-15" value="&lt;font style=&quot;font-size: 40px;&quot;&gt;COLOCA E-MAIL&lt;/font&gt;" style="ellipse;whiteSpace=wrap;html=1;" vertex="1" parent="1">
          <mxGeometry x="4029.2799999999997" y="562.5" width="370" height="220" as="geometry" />
        </mxCell>
        <mxCell id="YWciEob6G5SSci7iSp5B-16" style="edgeStyle=orthogonalEdgeStyle;rounded=0;orthogonalLoop=1;jettySize=auto;html=1;exitX=0.5;exitY=0.5;exitDx=0;exitDy=0;exitPerimeter=0;" edge="1" parent="1" source="YWciEob6G5SSci7iSp5B-17" target="YWciEob6G5SSci7iSp5B-19">
          <mxGeometry relative="1" as="geometry" />
        </mxCell>
        <mxCell id="YWciEob6G5SSci7iSp5B-17" value="" style="shape=umlActor;verticalLabelPosition=bottom;verticalAlign=top;html=1;outlineConnect=0;" vertex="1" parent="1">
          <mxGeometry x="4629.28" y="397.5" width="280" height="550" as="geometry" />
        </mxCell>
        <mxCell id="YWciEob6G5SSci7iSp5B-18" value="&lt;font style=&quot;font-size: 100px;&quot;&gt;EDITAR CONTA&lt;/font&gt;" style="text;html=1;align=left;verticalAlign=middle;whiteSpace=wrap;rounded=0;" vertex="1" parent="1">
          <mxGeometry x="2427.8799999999997" y="1080" width="810" height="120" as="geometry" />
        </mxCell>
        <mxCell id="YWciEob6G5SSci7iSp5B-19" value="&lt;font style=&quot;font-size: 40px;&quot;&gt;COLOCA SENHA&lt;/font&gt;" style="ellipse;whiteSpace=wrap;html=1;" vertex="1" parent="1">
          <mxGeometry x="5139.28" y="562.35" width="370" height="220" as="geometry" />
        </mxCell>
        <mxCell id="YWciEob6G5SSci7iSp5B-20" style="edgeStyle=orthogonalEdgeStyle;rounded=0;orthogonalLoop=1;jettySize=auto;html=1;exitX=0.5;exitY=0.5;exitDx=0;exitDy=0;exitPerimeter=0;" edge="1" parent="1" source="YWciEob6G5SSci7iSp5B-21" target="YWciEob6G5SSci7iSp5B-26">
          <mxGeometry relative="1" as="geometry" />
        </mxCell>
        <mxCell id="YWciEob6G5SSci7iSp5B-21" value="" style="shape=umlActor;verticalLabelPosition=bottom;verticalAlign=top;html=1;outlineConnect=0;" vertex="1" parent="1">
          <mxGeometry x="2454.9800000000005" y="1325" width="280" height="550" as="geometry" />
        </mxCell>
        <mxCell id="YWciEob6G5SSci7iSp5B-22" value="&lt;font style=&quot;font-size: 40px;&quot;&gt;EDITAR DADOS&lt;/font&gt;" style="ellipse;whiteSpace=wrap;html=1;" vertex="1" parent="1">
          <mxGeometry x="5904.98" y="1490" width="370" height="220" as="geometry" />
        </mxCell>
        <mxCell id="YWciEob6G5SSci7iSp5B-23" style="edgeStyle=orthogonalEdgeStyle;rounded=0;orthogonalLoop=1;jettySize=auto;html=1;exitX=0.5;exitY=0.5;exitDx=0;exitDy=0;exitPerimeter=0;entryX=0;entryY=0.5;entryDx=0;entryDy=0;" edge="1" parent="1" source="YWciEob6G5SSci7iSp5B-24" target="YWciEob6G5SSci7iSp5B-22">
          <mxGeometry relative="1" as="geometry" />
        </mxCell>
        <mxCell id="YWciEob6G5SSci7iSp5B-24" value="" style="shape=umlActor;verticalLabelPosition=bottom;verticalAlign=top;html=1;outlineConnect=0;" vertex="1" parent="1">
          <mxGeometry x="5504.98" y="1325" width="280" height="550" as="geometry" />
        </mxCell>
        <mxCell id="YWciEob6G5SSci7iSp5B-25" value="&lt;font style=&quot;font-size: 36px;&quot;&gt;INSERIU DADOS/ENDEREÇO&lt;/font&gt;" style="ellipse;whiteSpace=wrap;html=1;" vertex="1" parent="1">
          <mxGeometry x="2810" y="4985" width="370" height="220" as="geometry" />
        </mxCell>
        <mxCell id="YWciEob6G5SSci7iSp5B-26" value="&lt;font style=&quot;font-size: 40px;&quot;&gt;LOGIN/ENTRAR&lt;/font&gt;" style="ellipse;whiteSpace=wrap;html=1;" vertex="1" parent="1">
          <mxGeometry x="2954.9800000000005" y="1490" width="370" height="220" as="geometry" />
        </mxCell>
        <mxCell id="YWciEob6G5SSci7iSp5B-27" style="edgeStyle=orthogonalEdgeStyle;rounded=0;orthogonalLoop=1;jettySize=auto;html=1;exitX=0.5;exitY=0.5;exitDx=0;exitDy=0;exitPerimeter=0;entryX=0;entryY=0.5;entryDx=0;entryDy=0;" edge="1" parent="1" source="YWciEob6G5SSci7iSp5B-28" target="YWciEob6G5SSci7iSp5B-29">
          <mxGeometry relative="1" as="geometry" />
        </mxCell>
        <mxCell id="YWciEob6G5SSci7iSp5B-28" value="" style="shape=umlActor;verticalLabelPosition=bottom;verticalAlign=top;html=1;outlineConnect=0;" vertex="1" parent="1">
          <mxGeometry x="3444.9800000000005" y="1325" width="280" height="550" as="geometry" />
        </mxCell>
        <mxCell id="YWciEob6G5SSci7iSp5B-29" value="&lt;font style=&quot;font-size: 40px;&quot;&gt;COLOCA E-MAIL&lt;/font&gt;" style="ellipse;whiteSpace=wrap;html=1;" vertex="1" parent="1">
          <mxGeometry x="3904.98" y="1490" width="370" height="220" as="geometry" />
        </mxCell>
        <mxCell id="YWciEob6G5SSci7iSp5B-30" style="edgeStyle=orthogonalEdgeStyle;rounded=0;orthogonalLoop=1;jettySize=auto;html=1;exitX=0.5;exitY=0.5;exitDx=0;exitDy=0;exitPerimeter=0;entryX=0;entryY=0.5;entryDx=0;entryDy=0;" edge="1" parent="1" source="YWciEob6G5SSci7iSp5B-31" target="YWciEob6G5SSci7iSp5B-32">
          <mxGeometry relative="1" as="geometry" />
        </mxCell>
        <mxCell id="YWciEob6G5SSci7iSp5B-31" value="" style="shape=umlActor;verticalLabelPosition=bottom;verticalAlign=top;html=1;outlineConnect=0;" vertex="1" parent="1">
          <mxGeometry x="4504.98" y="1325" width="280" height="550" as="geometry" />
        </mxCell>
        <mxCell id="YWciEob6G5SSci7iSp5B-32" value="&lt;font style=&quot;font-size: 40px;&quot;&gt;COLOCA SENHA&lt;/font&gt;" style="ellipse;whiteSpace=wrap;html=1;" vertex="1" parent="1">
          <mxGeometry x="5014.98" y="1490" width="370" height="220" as="geometry" />
        </mxCell>
        <mxCell id="YWciEob6G5SSci7iSp5B-33" style="edgeStyle=orthogonalEdgeStyle;rounded=0;orthogonalLoop=1;jettySize=auto;html=1;exitX=0.5;exitY=0.5;exitDx=0;exitDy=0;exitPerimeter=0;entryX=0;entryY=0.5;entryDx=0;entryDy=0;" edge="1" parent="1" source="YWciEob6G5SSci7iSp5B-34" target="YWciEob6G5SSci7iSp5B-25">
          <mxGeometry relative="1" as="geometry" />
        </mxCell>
        <mxCell id="YWciEob6G5SSci7iSp5B-34" value="" style="shape=umlActor;verticalLabelPosition=bottom;verticalAlign=top;html=1;outlineConnect=0;" vertex="1" parent="1">
          <mxGeometry x="2440" y="4820" width="280" height="550" as="geometry" />
        </mxCell>
        <mxCell id="YWciEob6G5SSci7iSp5B-35" value="&lt;font style=&quot;font-size: 200px;&quot;&gt;CASOS DE USO&lt;/font&gt;" style="text;html=1;align=center;verticalAlign=middle;whiteSpace=wrap;rounded=0;flipH=0;flipV=1;labelPosition=center;verticalLabelPosition=middle;" vertex="1" parent="1">
          <mxGeometry x="4001.0299999999997" y="-390" width="1624.46" height="160" as="geometry" />
        </mxCell>
        <mxCell id="YWciEob6G5SSci7iSp5B-36" style="edgeStyle=orthogonalEdgeStyle;rounded=0;orthogonalLoop=1;jettySize=auto;html=1;exitX=0.5;exitY=0.5;exitDx=0;exitDy=0;exitPerimeter=0;entryX=0;entryY=0.5;entryDx=0;entryDy=0;" edge="1" parent="1" source="YWciEob6G5SSci7iSp5B-37" target="YWciEob6G5SSci7iSp5B-38">
          <mxGeometry relative="1" as="geometry" />
        </mxCell>
        <mxCell id="YWciEob6G5SSci7iSp5B-37" value="" style="shape=umlActor;verticalLabelPosition=bottom;verticalAlign=top;html=1;outlineConnect=0;" vertex="1" parent="1">
          <mxGeometry x="3340" y="4820" width="280" height="550" as="geometry" />
        </mxCell>
        <mxCell id="YWciEob6G5SSci7iSp5B-38" value="&lt;font style=&quot;font-size: 40px;&quot;&gt;ENTREGA&lt;/font&gt;" style="ellipse;whiteSpace=wrap;html=1;" vertex="1" parent="1">
          <mxGeometry x="3710" y="4985" width="370" height="220" as="geometry" />
        </mxCell>
        <mxCell id="YWciEob6G5SSci7iSp5B-39" value="&lt;font style=&quot;font-size: 30px;&quot;&gt;CLIENTE&lt;/font&gt;" style="text;html=1;align=center;verticalAlign=middle;whiteSpace=wrap;rounded=0;" vertex="1" parent="1">
          <mxGeometry x="2497.58" y="917.35" width="220" height="42.65" as="geometry" />
        </mxCell>
        <mxCell id="YWciEob6G5SSci7iSp5B-40" value="&lt;font style=&quot;font-size: 30px;&quot;&gt;CLIENTE&lt;/font&gt;" style="text;html=1;align=center;verticalAlign=middle;whiteSpace=wrap;rounded=0;" vertex="1" parent="1">
          <mxGeometry x="3599.2799999999997" y="917.35" width="220" height="42.65" as="geometry" />
        </mxCell>
        <mxCell id="YWciEob6G5SSci7iSp5B-41" value="&lt;font style=&quot;font-size: 30px;&quot;&gt;CLIENTE&lt;/font&gt;" style="text;html=1;align=center;verticalAlign=middle;whiteSpace=wrap;rounded=0;" vertex="1" parent="1">
          <mxGeometry x="4659.28" y="912.35" width="220" height="42.65" as="geometry" />
        </mxCell>
        <mxCell id="YWciEob6G5SSci7iSp5B-42" value="&lt;font style=&quot;font-size: 30px;&quot;&gt;CLIENTE&lt;/font&gt;" style="text;html=1;align=center;verticalAlign=middle;whiteSpace=wrap;rounded=0;" vertex="1" parent="1">
          <mxGeometry x="4534.98" y="1838.6799999999998" width="220" height="42.65" as="geometry" />
        </mxCell>
        <mxCell id="YWciEob6G5SSci7iSp5B-43" value="&lt;font style=&quot;font-size: 30px;&quot;&gt;CLIENTE&lt;/font&gt;" style="text;html=1;align=center;verticalAlign=middle;whiteSpace=wrap;rounded=0;" vertex="1" parent="1">
          <mxGeometry x="5534.98" y="1827.35" width="220" height="42.65" as="geometry" />
        </mxCell>
        <mxCell id="YWciEob6G5SSci7iSp5B-44" value="&lt;font style=&quot;font-size: 30px;&quot;&gt;CLIENTE&lt;/font&gt;" style="text;html=1;align=center;verticalAlign=middle;whiteSpace=wrap;rounded=0;" vertex="1" parent="1">
          <mxGeometry x="3474.98" y="1832.35" width="220" height="42.65" as="geometry" />
        </mxCell>
        <mxCell id="YWciEob6G5SSci7iSp5B-45" value="&lt;font style=&quot;font-size: 30px;&quot;&gt;CLIENTE&lt;/font&gt;" style="text;html=1;align=center;verticalAlign=middle;whiteSpace=wrap;rounded=0;" vertex="1" parent="1">
          <mxGeometry x="2484.98" y="1838.6799999999998" width="220" height="42.65" as="geometry" />
        </mxCell>
        <mxCell id="YWciEob6G5SSci7iSp5B-46" value="&lt;font style=&quot;font-size: 30px;&quot;&gt;CLIENTE&lt;/font&gt;" style="text;html=1;align=center;verticalAlign=middle;whiteSpace=wrap;rounded=0;" vertex="1" parent="1">
          <mxGeometry x="2459.37" y="4406.09" width="220" height="42.65" as="geometry" />
        </mxCell>
        <mxCell id="YWciEob6G5SSci7iSp5B-47" value="&lt;font style=&quot;font-size: 30px;&quot;&gt;BANCO DE DADOS&lt;/font&gt;" style="text;html=1;align=center;verticalAlign=middle;whiteSpace=wrap;rounded=0;" vertex="1" parent="1">
          <mxGeometry x="3571.33" y="4406.09" width="220" height="42.65" as="geometry" />
        </mxCell>
        <mxCell id="YWciEob6G5SSci7iSp5B-48" style="edgeStyle=orthogonalEdgeStyle;rounded=0;orthogonalLoop=1;jettySize=auto;html=1;exitX=1;exitY=0.5;exitDx=0;exitDy=0;entryX=0.5;entryY=0.5;entryDx=0;entryDy=0;entryPerimeter=0;" edge="1" parent="1" source="YWciEob6G5SSci7iSp5B-5" target="YWciEob6G5SSci7iSp5B-7">
          <mxGeometry relative="1" as="geometry" />
        </mxCell>
        <mxCell id="YWciEob6G5SSci7iSp5B-49" style="edgeStyle=orthogonalEdgeStyle;rounded=0;orthogonalLoop=1;jettySize=auto;html=1;exitX=1;exitY=0.5;exitDx=0;exitDy=0;entryX=0.5;entryY=0.5;entryDx=0;entryDy=0;entryPerimeter=0;" edge="1" parent="1" source="YWciEob6G5SSci7iSp5B-26" target="YWciEob6G5SSci7iSp5B-28">
          <mxGeometry relative="1" as="geometry" />
        </mxCell>
        <mxCell id="YWciEob6G5SSci7iSp5B-50" style="edgeStyle=orthogonalEdgeStyle;rounded=0;orthogonalLoop=1;jettySize=auto;html=1;exitX=1;exitY=0.5;exitDx=0;exitDy=0;entryX=0.5;entryY=0.5;entryDx=0;entryDy=0;entryPerimeter=0;" edge="1" parent="1" source="YWciEob6G5SSci7iSp5B-29" target="YWciEob6G5SSci7iSp5B-31">
          <mxGeometry relative="1" as="geometry" />
        </mxCell>
        <mxCell id="YWciEob6G5SSci7iSp5B-51" style="edgeStyle=orthogonalEdgeStyle;rounded=0;orthogonalLoop=1;jettySize=auto;html=1;exitX=1;exitY=0.5;exitDx=0;exitDy=0;entryX=0.5;entryY=0.5;entryDx=0;entryDy=0;entryPerimeter=0;" edge="1" parent="1" source="YWciEob6G5SSci7iSp5B-32" target="YWciEob6G5SSci7iSp5B-24">
          <mxGeometry relative="1" as="geometry" />
        </mxCell>
        <mxCell id="YWciEob6G5SSci7iSp5B-52" style="edgeStyle=orthogonalEdgeStyle;rounded=0;orthogonalLoop=1;jettySize=auto;html=1;exitX=1;exitY=0.5;exitDx=0;exitDy=0;entryX=0.5;entryY=0.5;entryDx=0;entryDy=0;entryPerimeter=0;" edge="1" parent="1" source="YWciEob6G5SSci7iSp5B-12" target="YWciEob6G5SSci7iSp5B-14">
          <mxGeometry relative="1" as="geometry" />
        </mxCell>
        <mxCell id="YWciEob6G5SSci7iSp5B-53" style="edgeStyle=orthogonalEdgeStyle;rounded=0;orthogonalLoop=1;jettySize=auto;html=1;exitX=1;exitY=0.5;exitDx=0;exitDy=0;entryX=0.5;entryY=0.5;entryDx=0;entryDy=0;entryPerimeter=0;" edge="1" parent="1" source="YWciEob6G5SSci7iSp5B-15" target="YWciEob6G5SSci7iSp5B-17">
          <mxGeometry relative="1" as="geometry" />
        </mxCell>
        <mxCell id="YWciEob6G5SSci7iSp5B-54" style="edgeStyle=orthogonalEdgeStyle;rounded=0;orthogonalLoop=1;jettySize=auto;html=1;exitX=1;exitY=0.5;exitDx=0;exitDy=0;entryX=0.5;entryY=0.5;entryDx=0;entryDy=0;entryPerimeter=0;" edge="1" parent="1" source="YWciEob6G5SSci7iSp5B-25" target="YWciEob6G5SSci7iSp5B-37">
          <mxGeometry relative="1" as="geometry" />
        </mxCell>
        <mxCell id="YWciEob6G5SSci7iSp5B-55" value="&lt;font style=&quot;font-size: 30px;&quot;&gt;CLIENTE&lt;/font&gt;" style="text;html=1;align=center;verticalAlign=middle;whiteSpace=wrap;rounded=0;" vertex="1" parent="1">
          <mxGeometry x="2464.99" y="5330" width="220" height="42.65" as="geometry" />
        </mxCell>
        <mxCell id="YWciEob6G5SSci7iSp5B-56" value="&lt;font style=&quot;font-size: 30px;&quot;&gt;DANCO DE DADOS&lt;/font&gt;" style="text;html=1;align=center;verticalAlign=middle;whiteSpace=wrap;rounded=0;" vertex="1" parent="1">
          <mxGeometry x="3370" y="5330" width="220" height="42.65" as="geometry" />
        </mxCell>
        <mxCell id="YWciEob6G5SSci7iSp5B-57" style="edgeStyle=orthogonalEdgeStyle;rounded=0;orthogonalLoop=1;jettySize=auto;html=1;exitX=0.5;exitY=0.5;exitDx=0;exitDy=0;exitPerimeter=0;" edge="1" parent="1" source="YWciEob6G5SSci7iSp5B-58" target="YWciEob6G5SSci7iSp5B-60">
          <mxGeometry relative="1" as="geometry" />
        </mxCell>
        <mxCell id="YWciEob6G5SSci7iSp5B-58" value="" style="shape=umlActor;verticalLabelPosition=bottom;verticalAlign=top;html=1;outlineConnect=0;" vertex="1" parent="1">
          <mxGeometry x="2431.33" y="2193.18" width="280" height="550" as="geometry" />
        </mxCell>
        <mxCell id="YWciEob6G5SSci7iSp5B-59" value="&lt;font style=&quot;font-size: 100px;&quot;&gt;VISUALIZAR PERFIL&lt;/font&gt;" style="text;html=1;align=left;verticalAlign=middle;whiteSpace=wrap;rounded=0;" vertex="1" parent="1">
          <mxGeometry x="2427.88" y="2016.45" width="989.95" height="85.3" as="geometry" />
        </mxCell>
        <mxCell id="YWciEob6G5SSci7iSp5B-60" value="&lt;font style=&quot;font-size: 40px;&quot;&gt;LOGIN/ENTRAR&lt;/font&gt;" style="ellipse;whiteSpace=wrap;html=1;" vertex="1" parent="1">
          <mxGeometry x="2924.6" y="2358.03" width="370" height="220" as="geometry" />
        </mxCell>
        <mxCell id="YWciEob6G5SSci7iSp5B-61" style="edgeStyle=orthogonalEdgeStyle;rounded=0;orthogonalLoop=1;jettySize=auto;html=1;exitX=0.5;exitY=0.5;exitDx=0;exitDy=0;exitPerimeter=0;entryX=0;entryY=0.5;entryDx=0;entryDy=0;" edge="1" parent="1" source="YWciEob6G5SSci7iSp5B-62" target="YWciEob6G5SSci7iSp5B-63">
          <mxGeometry relative="1" as="geometry" />
        </mxCell>
        <mxCell id="YWciEob6G5SSci7iSp5B-62" value="" style="shape=umlActor;verticalLabelPosition=bottom;verticalAlign=top;html=1;outlineConnect=0;" vertex="1" parent="1">
          <mxGeometry x="3521.33" y="2193.18" width="280" height="550" as="geometry" />
        </mxCell>
        <mxCell id="YWciEob6G5SSci7iSp5B-63" value="&lt;font style=&quot;font-size: 40px;&quot;&gt;VISUALIZAR PERFIL&lt;/font&gt;" style="ellipse;whiteSpace=wrap;html=1;" vertex="1" parent="1">
          <mxGeometry x="4001.33" y="2358.18" width="370" height="220" as="geometry" />
        </mxCell>
        <mxCell id="YWciEob6G5SSci7iSp5B-64" style="edgeStyle=orthogonalEdgeStyle;rounded=0;orthogonalLoop=1;jettySize=auto;html=1;exitX=1;exitY=0.5;exitDx=0;exitDy=0;entryX=0.5;entryY=0.5;entryDx=0;entryDy=0;entryPerimeter=0;" edge="1" parent="1" source="YWciEob6G5SSci7iSp5B-60" target="YWciEob6G5SSci7iSp5B-62">
          <mxGeometry relative="1" as="geometry" />
        </mxCell>
        <mxCell id="YWciEob6G5SSci7iSp5B-65" style="edgeStyle=orthogonalEdgeStyle;rounded=0;orthogonalLoop=1;jettySize=auto;html=1;exitX=0.5;exitY=0.5;exitDx=0;exitDy=0;exitPerimeter=0;entryX=0;entryY=0.5;entryDx=0;entryDy=0;" edge="1" parent="1" source="YWciEob6G5SSci7iSp5B-66" target="YWciEob6G5SSci7iSp5B-68">
          <mxGeometry relative="1" as="geometry" />
        </mxCell>
        <mxCell id="YWciEob6G5SSci7iSp5B-66" value="" style="shape=umlActor;verticalLabelPosition=bottom;verticalAlign=top;html=1;outlineConnect=0;" vertex="1" parent="1">
          <mxGeometry x="2427.88" y="3075.25" width="280" height="550" as="geometry" />
        </mxCell>
        <mxCell id="YWciEob6G5SSci7iSp5B-67" value="&lt;span style=&quot;font-size: 100px;&quot;&gt;DELETAR CONTA&lt;/span&gt;" style="text;html=1;align=left;verticalAlign=middle;whiteSpace=wrap;rounded=0;" vertex="1" parent="1">
          <mxGeometry x="2427.88" y="2857" width="942.12" height="85.3" as="geometry" />
        </mxCell>
        <mxCell id="YWciEob6G5SSci7iSp5B-68" value="&lt;font style=&quot;font-size: 40px;&quot;&gt;LOGIN/ENTRAR&lt;/font&gt;" style="ellipse;whiteSpace=wrap;html=1;" vertex="1" parent="1">
          <mxGeometry x="2841.1500000000005" y="3242.0000000000005" width="370" height="220" as="geometry" />
        </mxCell>
        <mxCell id="YWciEob6G5SSci7iSp5B-69" style="edgeStyle=orthogonalEdgeStyle;rounded=0;orthogonalLoop=1;jettySize=auto;html=1;exitX=0.5;exitY=0.5;exitDx=0;exitDy=0;exitPerimeter=0;entryX=0;entryY=0.5;entryDx=0;entryDy=0;" edge="1" parent="1" source="YWciEob6G5SSci7iSp5B-70" target="YWciEob6G5SSci7iSp5B-71">
          <mxGeometry relative="1" as="geometry" />
        </mxCell>
        <mxCell id="YWciEob6G5SSci7iSp5B-70" value="" style="shape=umlActor;verticalLabelPosition=bottom;verticalAlign=top;html=1;outlineConnect=0;" vertex="1" parent="1">
          <mxGeometry x="3437.88" y="3077.15" width="280" height="550" as="geometry" />
        </mxCell>
        <mxCell id="YWciEob6G5SSci7iSp5B-71" value="&lt;font style=&quot;font-size: 40px;&quot;&gt;DELETAR CONTA&lt;/font&gt;" style="ellipse;whiteSpace=wrap;html=1;" vertex="1" parent="1">
          <mxGeometry x="3917.88" y="3242.15" width="370" height="220" as="geometry" />
        </mxCell>
        <mxCell id="YWciEob6G5SSci7iSp5B-72" style="edgeStyle=orthogonalEdgeStyle;rounded=0;orthogonalLoop=1;jettySize=auto;html=1;exitX=0.5;exitY=0.5;exitDx=0;exitDy=0;exitPerimeter=0;entryX=0;entryY=0.5;entryDx=0;entryDy=0;" edge="1" parent="1" source="YWciEob6G5SSci7iSp5B-73" target="YWciEob6G5SSci7iSp5B-74">
          <mxGeometry relative="1" as="geometry" />
        </mxCell>
        <mxCell id="YWciEob6G5SSci7iSp5B-73" value="" style="shape=umlActor;verticalLabelPosition=bottom;verticalAlign=top;html=1;outlineConnect=0;" vertex="1" parent="1">
          <mxGeometry x="4407.88" y="3077" width="280" height="550" as="geometry" />
        </mxCell>
        <mxCell id="YWciEob6G5SSci7iSp5B-74" value="&lt;font style=&quot;font-size: 40px;&quot;&gt;CONFIRMAR&lt;/font&gt;" style="ellipse;whiteSpace=wrap;html=1;" vertex="1" parent="1">
          <mxGeometry x="4887.88" y="3242" width="370" height="220" as="geometry" />
        </mxCell>
        <mxCell id="YWciEob6G5SSci7iSp5B-75" style="edgeStyle=orthogonalEdgeStyle;rounded=0;orthogonalLoop=1;jettySize=auto;html=1;exitX=1;exitY=0.5;exitDx=0;exitDy=0;entryX=0.5;entryY=0.5;entryDx=0;entryDy=0;entryPerimeter=0;" edge="1" parent="1" source="YWciEob6G5SSci7iSp5B-68" target="YWciEob6G5SSci7iSp5B-70">
          <mxGeometry relative="1" as="geometry" />
        </mxCell>
        <mxCell id="YWciEob6G5SSci7iSp5B-76" style="edgeStyle=orthogonalEdgeStyle;rounded=0;orthogonalLoop=1;jettySize=auto;html=1;exitX=1;exitY=0.5;exitDx=0;exitDy=0;entryX=0.5;entryY=0.5;entryDx=0;entryDy=0;entryPerimeter=0;" edge="1" parent="1" source="YWciEob6G5SSci7iSp5B-71" target="YWciEob6G5SSci7iSp5B-73">
          <mxGeometry relative="1" as="geometry" />
        </mxCell>
        <mxCell id="YWciEob6G5SSci7iSp5B-77" value="&lt;font style=&quot;font-size: 30px;&quot;&gt;CLIENTE&lt;/font&gt;" style="text;html=1;align=center;verticalAlign=middle;whiteSpace=wrap;rounded=0;" vertex="1" parent="1">
          <mxGeometry x="2464.9900000000002" y="3590" width="220" height="42.65" as="geometry" />
        </mxCell>
        <mxCell id="YWciEob6G5SSci7iSp5B-78" value="&lt;font style=&quot;font-size: 30px;&quot;&gt;CLIENTE&lt;/font&gt;" style="text;html=1;align=center;verticalAlign=middle;whiteSpace=wrap;rounded=0;" vertex="1" parent="1">
          <mxGeometry x="4430" y="3595" width="220" height="42.65" as="geometry" />
        </mxCell>
        <mxCell id="YWciEob6G5SSci7iSp5B-79" value="&lt;font style=&quot;font-size: 30px;&quot;&gt;BANCO DE DADOS&lt;/font&gt;" style="text;html=1;align=center;verticalAlign=middle;whiteSpace=wrap;rounded=0;" vertex="1" parent="1">
          <mxGeometry x="3467.88" y="3590" width="220" height="42.65" as="geometry" />
        </mxCell>
        <mxCell id="YWciEob6G5SSci7iSp5B-80" value="&lt;font style=&quot;font-size: 30px;&quot;&gt;CLIENTE&lt;/font&gt;" style="text;html=1;align=center;verticalAlign=middle;whiteSpace=wrap;rounded=0;" vertex="1" parent="1">
          <mxGeometry x="2465.65" y="2710" width="220" height="42.65" as="geometry" />
        </mxCell>
        <mxCell id="YWciEob6G5SSci7iSp5B-81" value="&lt;font style=&quot;font-size: 30px;&quot;&gt;BANCO DE DADOS&lt;/font&gt;" style="text;html=1;align=center;verticalAlign=middle;whiteSpace=wrap;rounded=0;" vertex="1" parent="1">
          <mxGeometry x="3551.33" y="2700.5299999999997" width="220" height="42.65" as="geometry" />
        </mxCell>
      </root>
    </mxGraphModel>
  </diagram>
</mxfile>
